<?xml version="1.0" encoding="UTF-8"?>
<svg xmlns="http://www.w3.org/2000/svg" xmlns:xlink="http://www.w3.org/1999/xlink" width="259.82pt" height="259.82pt" viewBox="0 0 259.82 259.82" version="1.1">
<g id="surface1">
<path style=" stroke:none;fill-rule:nonzero;fill:rgb(0%,0%,0%);fill-opacity:1;" d="M 129.910156 243.179688 C 67.355469 243.179688 16.640625 192.464844 16.640625 129.90625 C 16.640625 67.351563 67.355469 16.636719 129.910156 16.636719 C 192.46875 16.636719 243.183594 67.351563 243.183594 129.90625 C 243.183594 192.464844 192.46875 243.179688 129.910156 243.179688 Z M 129.910156 -0.00390625 C 58.164063 -0.00390625 0 58.160156 0 129.90625 C 0 201.65625 58.164063 259.820313 129.910156 259.820313 C 201.660156 259.820313 259.824219 201.65625 259.824219 129.90625 C 259.824219 58.160156 201.660156 -0.00390625 129.910156 -0.00390625 "/>
<path style=" stroke:none;fill-rule:nonzero;fill:rgb(0%,0%,0%);fill-opacity:1;" d="M 45.125 96.472656 L 61.792969 122.136719 C 61.792969 122.136719 72.125 105.136719 91.460938 102.472656 C 91.460938 102.472656 109.460938 99.472656 111.792969 110.472656 C 111.792969 110.472656 114.125 120.140625 102.460938 124.804688 C 102.460938 124.804688 95.125 128.136719 82.460938 126.472656 L 88.460938 152.136719 C 88.460938 152.136719 115.125 142.136719 121.460938 166.804688 C 121.460938 166.804688 125.125 182.472656 106.460938 190.472656 C 106.460938 190.472656 61.792969 205.804688 30.792969 149.804688 C 30.792969 149.804688 45.792969 207.140625 93.125 217.472656 C 93.125 217.472656 113.125 221.804688 129.125 201.804688 C 129.125 201.804688 143.792969 181.804688 131.125 153.804688 C 131.125 153.804688 141.125 165.804688 154.792969 161.136719 C 154.792969 161.136719 166.792969 160.136719 175.125 140.136719 C 175.125 140.136719 183.125 117.804688 199.460938 115.136719 C 199.460938 115.136719 218.125 113.472656 219.792969 139.472656 C 219.792969 139.472656 221.125 169.136719 191.792969 181.804688 C 191.792969 181.804688 168.125 192.472656 149.792969 166.804688 C 149.792969 166.804688 147.792969 179.472656 154.792969 189.804688 C 154.792969 189.804688 173.460938 213.804688 199.460938 201.804688 C 199.460938 201.804688 242.792969 179.804688 227.792969 128.804688 C 227.792969 128.804688 214.460938 87.472656 175.125 94.472656 C 175.125 94.472656 156.792969 99.472656 152.125 124.472656 C 152.125 124.472656 147.792969 143.472656 133.460938 146.472656 C 133.460938 146.472656 126.792969 148.136719 117.792969 141.136719 C 117.792969 141.136719 111.125 136.472656 107.125 137.804688 C 107.125 137.804688 129.125 125.472656 122.792969 104.136719 C 122.792969 104.136719 113.792969 74.136719 87.460938 73.136719 C 87.460938 73.136719 69.125 72.804688 45.125 96.472656 "/>
<path style=" stroke:none;fill-rule:nonzero;fill:rgb(0%,0%,0%);fill-opacity:1;" d="M 106.460938 58.472656 C 106.460938 58.472656 118.457031 92.804688 144.792969 94.804688 C 144.792969 94.804688 169.460938 97.804688 184.460938 81.136719 L 167.460938 58.136719 C 167.460938 58.136719 142.460938 96.804688 106.460938 58.472656 "/>
<path style=" stroke:none;fill-rule:nonzero;fill:rgb(0%,0%,0%);fill-opacity:1;" d="M 121.460938 53.804688 L 137.460938 70.804688 L 150.792969 56.136719 L 137.792969 38.804688 L 121.460938 53.804688 "/>
</g>
</svg>
